# xmcd
#
# Track frame offsets: 
#        150
#        20394
#        30077
#        43082
#        54459
#        64759
#        84824
#        101253
#        115262
#        131119
#        151828
#        167978
#
# Disc length: 2442 seconds
#
# Revision: 0
# Processed by: cddbd v1.5.2PL0 Copyright (c) Steve Scherf et al.
# Submitted via: ExactAudioCopy v0.99pb5
#
DISCID=8a09880c
DTITLE=Michael and The Messengers - People With No Last Names
DYEAR=2002
DGENRE=Folk Country
TTITLE0=The Drink Takes The Man
TTITLE1=People With No Last Names
TTITLE2=There's A Heart Here
TTITLE3=Y.E.T. (You're Elligible Too)
TTITLE4=Mr. Humble
TTITLE5=Lifeline
TTITLE6=Old Timer
TTITLE7=Mabel The Enabler
TTITLE8=Relationship Meeting
TTITLE9=Family
TTITLE10=Comin' Back
TTITLE11=Who'da' Thought
EXTD=
EXTT0=
EXTT1=
EXTT2=
EXTT3=
EXTT4=
EXTT5=
EXTT6=
EXTT7=
EXTT8=
EXTT9=
EXTT10=
EXTT11=
PLAYORDER=
